<svg xmlns="http://www.w3.org/2000/svg" viewBox="0 0 800 800">
  <rect width="800" height="800" fill="none"/>
  <g transform="translate(400 430)">
    <path d="M-185 150 L0 -170 L185 150 Q0 245 -185 150 Z" fill="#f8ddd9"/>
    <path d="M-145 145 L0 -115 L145 145 Q0 210 -145 145 Z" fill="#fceecf"/>
    <path d="M-22 145 L-12 -58 L12 -58 L22 145 Z" fill="#588d4e"/>
    <path d="M-74 148 L-96 -32 L-72 -35 L-30 148 Z" fill="#5f9d54"/>
    <path d="M74 148 L30 148 L72 -35 L96 -32 Z" fill="#5f9d54"/>
    <path d="M-118 26 C-170 -8 -162 -92 -108 -116 C-80 -128 -46 -120 -24 -92 C0 -124 43 -129 74 -112 C122 -85 132 -12 87 26 C55 54 14 73 -22 103 C-56 72 -91 54 -118 26 Z" fill="#f38cab"/>
    <circle cx="-22" cy="-26" r="27" fill="#ffe182"/>
    <path d="M-18 -38 L-26 -10 L2 -20 L-22 0 L6 6 L-20 18 L0 36 L-28 24 L-34 52 L-40 24 L-68 36 L-48 18 L-74 6 L-46 0 L-70 -20 L-42 -10 L-50 -38 L-28 -22 Z" fill="#ffd65b"/>
    <path d="M-38 -88 C-88 -123 -82 -195 -26 -214 C7 -224 42 -214 67 -184 C92 -215 130 -223 161 -208 C216 -181 224 -107 173 -68 C137 -40 94 -19 61 15 C28 -18 -6 -42 -38 -88 Z" fill="#e85f73"/>
    <circle cx="64" cy="-122" r="29" fill="#ffe182"/>
    <path d="M58 -135 L48 -104 L79 -114 L53 -89 L85 -81 L55 -68 L78 -43 L45 -56 L38 -23 L30 -56 L-3 -43 L20 -68 L-10 -81 L22 -89 L-4 -114 L27 -104 L17 -135 L40 -118 Z" fill="#ffd65b"/>
    <path d="M86 24 C52 -4 54 -57 92 -79 C113 -90 140 -86 158 -68 C176 -91 205 -95 227 -82 C265 -59 271 -7 238 22 C214 42 185 55 160 78 C134 57 106 42 86 24 Z" fill="#f59c7e"/>
    <circle cx="160" cy="-12" r="24" fill="#fff0a8"/>
    <path d="M154 -24 L146 -2 L168 -10 L150 8 L172 13 L151 24 L167 42 L145 33 L139 56 L133 33 L111 42 L127 24 L106 13 L128 8 L110 -10 L132 -2 L124 -24 L140 -12 Z" fill="#ffd65b"/>
    <path d="M-148 -3 C-179 -27 -177 -72 -144 -93 C-125 -104 -102 -101 -87 -88 C-71 -107 -44 -110 -25 -99 C11 -78 14 -30 -15 -5 C-36 14 -62 27 -83 48 C-104 28 -130 14 -148 -3 Z" fill="#ffd36f"/>
    <circle cx="-84" cy="-32" r="21" fill="#fff3b7"/>
    <path d="M-90 -44 L-96 -23 L-75 -30 L-91 -13 L-70 -8 L-89 4 L-73 20 L-95 13 L-100 34 L-105 13 L-127 20 L-111 4 L-130 -8 L-109 -13 L-125 -30 L-104 -23 L-110 -44 L-95 -32 Z" fill="#ffe07d"/>
    <path d="M28 62 C5 42 8 8 35 -8 C50 -18 70 -17 84 -6 C98 -21 120 -24 137 -14 C165 3 168 38 145 59 C128 74 108 84 91 100 C74 84 48 79 28 62 Z" fill="#f6a7c1"/>
    <circle cx="88" cy="36" r="18" fill="#fff0a8"/>
    <path d="M84 24 L78 40 L94 35 L82 49 L98 53 L83 62 L94 75 L79 69 L75 85 L71 69 L56 75 L67 62 L53 53 L69 49 L57 35 L73 40 L67 24 L79 34 Z" fill="#ffd65b"/>
    <path d="M-86 18 Q-117 5 -137 28 Q-104 45 -75 39 Z" fill="#76b56f"/>
    <path d="M69 23 Q100 5 123 25 Q92 47 60 40 Z" fill="#76b56f"/>
    <path d="M-48 148 Q0 179 48 148" fill="none" stroke="#d85f86" stroke-width="20" stroke-linecap="round"/>
    <path d="M-34 124 L-82 169" fill="none" stroke="#eb8baa" stroke-width="18" stroke-linecap="round"/>
    <path d="M34 124 L82 169" fill="none" stroke="#eb8baa" stroke-width="18" stroke-linecap="round"/>
  </g>
</svg>
