{"asset":{"version":"2.0","generator":"Codex placeholder bouquet"},"extensionsUsed":["KHR_materials_unlit"],"extensionsRequired":["KHR_materials_unlit"],"scene":0,"scenes":[{"nodes":[0]}],"nodes":[{"mesh":0,"name":"Bouquet"}],"meshes":[{"name":"BouquetMesh","primitives":[{"attributes":{"POSITION":0},"indices":1,"material":0,"mode":4},{"attributes":{"POSITION":2},"indices":3,"material":1,"mode":4},{"attributes":{"POSITION":4},"indices":5,"material":2,"mode":4},{"attributes":{"POSITION":6},"indices":7,"material":3,"mode":4},{"attributes":{"POSITION":8},"indices":9,"material":4,"mode":4},{"attributes":{"POSITION":10},"indices":11,"material":5,"mode":4},{"attributes":{"POSITION":12},"indices":13,"material":6,"mode":4},{"attributes":{"POSITION":14},"indices":15,"material":7,"mode":4},{"attributes":{"POSITION":16},"indices":17,"material":8,"mode":4},{"attributes":{"POSITION":18},"indices":19,"material":9,"mode":4},{"attributes":{"POSITION":20},"indices":21,"material":10,"mode":4},{"attributes":{"POSITION":22},"indices":23,"material":11,"mode":4},{"attributes":{"POSITION":24},"indices":25,"material":12,"mode":4},{"attributes":{"POSITION":26},"indices":27,"material":13,"mode":4},{"attributes":{"POSITION":28},"indices":29,"material":14,"mode":4},{"attributes":{"POSITION":30},"indices":31,"material":15,"mode":4},{"attributes":{"POSITION":32},"indices":33,"material":16,"mode":4},{"attributes":{"POSITION":34},"indices":35,"material":17,"mode":4}]}],"materials":[{"name":"wrapOuter","doubleSided":true,"pbrMetallicRoughness":{"baseColorFactor":[0.965,0.824,0.867,1.0],"metallicFactor":0.0,"roughnessFactor":1.0},"extensions":{"KHR_materials_unlit":{}}},{"name":"wrapInner","doubleSided":true,"pbrMetallicRoughness":{"baseColorFactor":[0.994,0.949,0.859,1.0],"metallicFactor":0.0,"roughnessFactor":1.0},"extensions":{"KHR_materials_unlit":{}}},{"name":"stems","doubleSided":true,"pbrMetallicRoughness":{"baseColorFactor":[0.34,0.63,0.34,1.0],"metallicFactor":0.0,"roughnessFactor":1.0},"extensions":{"KHR_materials_unlit":{}}},{"name":"leafLeft","doubleSided":true,"pbrMetallicRoughness":{"baseColorFactor":[0.28,0.68,0.36,1.0],"metallicFactor":0.0,"roughnessFactor":1.0},"extensions":{"KHR_materials_unlit":{}}},{"name":"leafRight","doubleSided":true,"pbrMetallicRoughness":{"baseColorFactor":[0.28,0.68,0.36,1.0],"metallicFactor":0.0,"roughnessFactor":1.0},"extensions":{"KHR_materials_unlit":{}}},{"name":"ribbonCenter","doubleSided":true,"pbrMetallicRoughness":{"baseColorFactor":[0.83,0.37,0.49,1.0],"metallicFactor":0.0,"roughnessFactor":1.0},"extensions":{"KHR_materials_unlit":{}}},{"name":"ribbonTailLeft","doubleSided":true,"pbrMetallicRoughness":{"baseColorFactor":[0.92,0.57,0.67,1.0],"metallicFactor":0.0,"roughnessFactor":1.0},"extensions":{"KHR_materials_unlit":{}}},{"name":"ribbonTailRight","doubleSided":true,"pbrMetallicRoughness":{"baseColorFactor":[0.92,0.57,0.67,1.0],"metallicFactor":0.0,"roughnessFactor":1.0},"extensions":{"KHR_materials_unlit":{}}},{"name":"leftFlowerPetals","doubleSided":true,"pbrMetallicRoughness":{"baseColorFactor":[0.98,0.65,0.76,1.0],"metallicFactor":0.0,"roughnessFactor":1.0},"extensions":{"KHR_materials_unlit":{}}},{"name":"leftFlowerCenter","doubleSided":true,"pbrMetallicRoughness":{"baseColorFactor":[0.99,0.87,0.4,1.0],"metallicFactor":0.0,"roughnessFactor":1.0},"extensions":{"KHR_materials_unlit":{}}},{"name":"centerFlowerPetals","doubleSided":true,"pbrMetallicRoughness":{"baseColorFactor":[0.92,0.35,0.44,1.0],"metallicFactor":0.0,"roughnessFactor":1.0},"extensions":{"KHR_materials_unlit":{}}},{"name":"centerFlowerCenter","doubleSided":true,"pbrMetallicRoughness":{"baseColorFactor":[1.0,0.9,0.43,1.0],"metallicFactor":0.0,"roughnessFactor":1.0},"extensions":{"KHR_materials_unlit":{}}},{"name":"rightFlowerPetals","doubleSided":true,"pbrMetallicRoughness":{"baseColorFactor":[0.95,0.53,0.69,1.0],"metallicFactor":0.0,"roughnessFactor":1.0},"extensions":{"KHR_materials_unlit":{}}},{"name":"rightFlowerCenter","doubleSided":true,"pbrMetallicRoughness":{"baseColorFactor":[0.99,0.87,0.4,1.0],"metallicFactor":0.0,"roughnessFactor":1.0},"extensions":{"KHR_materials_unlit":{}}},{"name":"smallLeftPetals","doubleSided":true,"pbrMetallicRoughness":{"baseColorFactor":[0.95,0.78,0.47,1.0],"metallicFactor":0.0,"roughnessFactor":1.0},"extensions":{"KHR_materials_unlit":{}}},{"name":"smallLeftCenter","doubleSided":true,"pbrMetallicRoughness":{"baseColorFactor":[1.0,0.95,0.72,1.0],"metallicFactor":0.0,"roughnessFactor":1.0},"extensions":{"KHR_materials_unlit":{}}},{"name":"smallRightPetals","doubleSided":true,"pbrMetallicRoughness":{"baseColorFactor":[0.99,0.81,0.54,1.0],"metallicFactor":0.0,"roughnessFactor":1.0},"extensions":{"KHR_materials_unlit":{}}},{"name":"smallRightCenter","doubleSided":true,"pbrMetallicRoughness":{"baseColorFactor":[1.0,0.95,0.76,1.0],"metallicFactor":0.0,"roughnessFactor":1.0},"extensions":{"KHR_materials_unlit":{}}}],"buffers":[{"byteLength":1152,"uri":"data:application/octet-stream;base64,"}],"bufferViews":[{"buffer":0,"byteOffset":0,"byteLength":48,"target":34962},{"buffer":0,"byteOffset":48,"byteLength":18,"target":34963},{"buffer":0,"byteOffset":68,"byteLength":48,"target":34962},{"buffer":0,"byteOffset":116,"byteLength":18,"target":34963},{"buffer":0,"byteOffset":136,"byteLength":48,"target":34962},{"buffer":0,"byteOffset":184,"byteLength":12,"target":34963},{"buffer":0,"byteOffset":196,"byteLength":36,"target":34962},{"buffer":0,"byteOffset":232,"byteLength":6,"target":34963},{"buffer":0,"byteOffset":240,"byteLength":36,"target":34962},{"buffer":0,"byteOffset":276,"byteLength":6,"target":34963},{"buffer":0,"byteOffset":284,"byteLength":48,"target":34962},{"buffer":0,"byteOffset":332,"byteLength":12,"target":34963},{"buffer":0,"byteOffset":344,"byteLength":36,"target":34962},{"buffer":0,"byteOffset":380,"byteLength":6,"target":34963},{"buffer":0,"byteOffset":388,"byteLength":36,"target":34962},{"buffer":0,"byteOffset":424,"byteLength":6,"target":34963},{"buffer":0,"byteOffset":432,"byteLength":60,"target":34962},{"buffer":0,"byteOffset":492,"byteLength":24,"target":34963},{"buffer":0,"byteOffset":516,"byteLength":48,"target":34962},{"buffer":0,"byteOffset":564,"byteLength":12,"target":34963},{"buffer":0,"byteOffset":576,"byteLength":60,"target":34962},{"buffer":0,"byteOffset":636,"byteLength":24,"target":34963},{"buffer":0,"byteOffset":660,"byteLength":48,"target":34962},{"buffer":0,"byteOffset":708,"byteLength":12,"target":34963},{"buffer":0,"byteOffset":720,"byteLength":60,"target":34962},{"buffer":0,"byteOffset":780,"byteLength":24,"target":34963},{"buffer":0,"byteOffset":804,"byteLength":48,"target":34962},{"buffer":0,"byteOffset":852,"byteLength":12,"target":34963},{"buffer":0,"byteOffset":864,"byteLength":60,"target":34962},{"buffer":0,"byteOffset":924,"byteLength":24,"target":34963},{"buffer":0,"byteOffset":948,"byteLength":48,"target":34962},{"buffer":0,"byteOffset":996,"byteLength":12,"target":34963},{"buffer":0,"byteOffset":1008,"byteLength":60,"target":34962},{"buffer":0,"byteOffset":1068,"byteLength":24,"target":34963},{"buffer":0,"byteOffset":1092,"byteLength":48,"target":34962},{"buffer":0,"byteOffset":1140,"byteLength":12,"target":34963}],"accessors":[{"bufferView":0,"componentType":5126,"count":4,"type":"VEC3","min":[-0.82,-1.08,-0.02],"max":[0.82,0.42,-0.02]},{"bufferView":1,"componentType":5123,"count":9,"type":"SCALAR","min":[0],"max":[3]},{"bufferView":2,"componentType":5126,"count":4,"type":"VEC3","min":[-0.56,-0.78,-0.01],"max":[0.56,0.26,-0.01]},{"bufferView":3,"componentType":5123,"count":9,"type":"SCALAR","min":[0],"max":[3]},{"bufferView":4,"componentType":5126,"count":4,"type":"VEC3","min":[-0.14,-1.22,-0.03],"max":[0.14,-0.18,-0.03]},{"bufferView":5,"componentType":5123,"count":6,"type":"SCALAR","min":[0],"max":[3]},{"bufferView":6,"componentType":5126,"count":3,"type":"VEC3","min":[-0.58,-0.52,0.02],"max":[-0.14,-0.06,0.02]},{"bufferView":7,"componentType":5123,"count":3,"type":"SCALAR","min":[0],"max":[2]},{"bufferView":8,"componentType":5126,"count":3,"type":"VEC3","min":[0.14,-0.52,0.02],"max":[0.58,-0.06,0.02]},{"bufferView":9,"componentType":5123,"count":3,"type":"SCALAR","min":[0],"max":[2]},{"bufferView":10,"componentType":5126,"count":4,"type":"VEC3","min":[-0.18,-0.38,0.03],"max":[0.18,-0.06,0.03]},{"bufferView":11,"componentType":5123,"count":6,"type":"SCALAR","min":[0],"max":[3]},{"bufferView":12,"componentType":5126,"count":3,"type":"VEC3","min":[-0.3,-0.54,0.025],"max":[-0.02,-0.22,0.025]},{"bufferView":13,"componentType":5123,"count":3,"type":"SCALAR","min":[0],"max":[2]},{"bufferView":14,"componentType":5126,"count":3,"type":"VEC3","min":[0.02,-0.54,0.025],"max":[0.3,-0.22,0.025]},{"bufferView":15,"componentType":5123,"count":3,"type":"SCALAR","min":[0],"max":[2]},{"bufferView":16,"componentType":5126,"count":5,"type":"VEC3","min":[-0.74,0.09999999999999998,0.06],"max":[-0.21999999999999997,0.62,0.06]},{"bufferView":17,"componentType":5123,"count":12,"type":"SCALAR","min":[0],"max":[4]},{"bufferView":18,"componentType":5126,"count":4,"type":"VEC3","min":[-0.5658,0.2742,0.07],"max":[-0.3942,0.4458,0.07]},{"bufferView":19,"componentType":5123,"count":6,"type":"SCALAR","min":[0],"max":[3]},{"bufferView":20,"componentType":5126,"count":5,"type":"VEC3","min":[-0.3,0.27999999999999997,0.06],"max":[0.3,0.8799999999999999,0.06]},{"bufferView":21,"componentType":5123,"count":12,"type":"SCALAR","min":[0],"max":[4]},{"bufferView":22,"componentType":5126,"count":4,"type":"VEC3","min":[-0.099,0.481,0.07],"max":[0.099,0.6789999999999999,0.07]},{"bufferView":23,"componentType":5123,"count":6,"type":"SCALAR","min":[0],"max":[3]},{"bufferView":24,"componentType":5126,"count":5,"type":"VEC3","min":[0.21999999999999997,0.09999999999999998,0.06],"max":[0.74,0.62,0.06]},{"bufferView":25,"componentType":5123,"count":12,"type":"SCALAR","min":[0],"max":[4]},{"bufferView":26,"componentType":5126,"count":4,"type":"VEC3","min":[0.3942,0.2742,0.07],"max":[0.5658,0.4458,0.07]},{"bufferView":27,"componentType":5123,"count":6,"type":"SCALAR","min":[0],"max":[3]},{"bufferView":28,"componentType":5126,"count":5,"type":"VEC3","min":[-0.29000000000000004,0.0,0.06],"max":[0.05000000000000002,0.34,0.06]},{"bufferView":29,"componentType":5123,"count":12,"type":"SCALAR","min":[0],"max":[4]},{"bufferView":30,"componentType":5126,"count":4,"type":"VEC3","min":[-0.1761,0.1139,0.07],"max":[-0.06389999999999998,0.22610000000000002,0.07]},{"bufferView":31,"componentType":5123,"count":6,"type":"SCALAR","min":[0],"max":[3]},{"bufferView":32,"componentType":5126,"count":5,"type":"VEC3","min":[0.05000000000000002,-0.04999999999999999,0.06],"max":[0.35,0.25,0.06]},{"bufferView":33,"componentType":5123,"count":12,"type":"SCALAR","min":[0],"max":[4]},{"bufferView":34,"componentType":5126,"count":4,"type":"VEC3","min":[0.15050000000000002,0.0505,0.07],"max":[0.2495,0.14950000000000002,0.07]},{"bufferView":35,"componentType":5123,"count":6,"type":"SCALAR","min":[0],"max":[3]}]}