<svg xmlns="http://www.w3.org/2000/svg" viewBox="0 0 1024 1024">
  <rect width="1024" height="1024" fill="none"/>
  <g transform="translate(512 564)">
    <path d="M-240 140 L0 -190 L132 190 Q0 252 -240 140 Z" fill="#f7ddd7"/>
    <path d="M240 140 L0 -190 L-132 190 Q0 252 240 140 Z" fill="#faeed2"/>
    <rect x="-42" y="-10" width="24" height="252" rx="12" fill="#588d4e"/>
    <rect x="-10" y="-34" width="24" height="278" rx="12" fill="#5c954e"/>
    <rect x="22" y="-10" width="24" height="252" rx="12" fill="#5b9b55"/>
    <ellipse cx="-126" cy="-16" rx="84" ry="30" transform="rotate(-22 -126 -16)" fill="#76b56f"/>
    <ellipse cx="126" cy="-16" rx="84" ry="30" transform="rotate(22 126 -16)" fill="#76b56f"/>
    <g fill="#d85f86">
      <rect x="-34" y="168" width="68" height="148" rx="18"/>
      <path d="M-8 142 C-72 112 -92 82 -96 32 C-30 44 -2 78 0 128 Z"/>
      <path d="M8 142 C72 112 92 82 96 32 C30 44 2 78 0 128 Z"/>
    </g>
    <g transform="translate(-180 -132)">
      <circle r="76" fill="#f39bb7"/>
      <circle cx="-72" cy="0" r="54" fill="#f39bb7"/>
      <circle cx="72" cy="0" r="54" fill="#f39bb7"/>
      <circle cx="0" cy="-72" r="54" fill="#f39bb7"/>
      <circle cx="0" cy="72" r="54" fill="#f39bb7"/>
      <circle cx="-50" cy="-50" r="46" fill="#f39bb7"/>
      <circle cx="50" cy="-50" r="46" fill="#f39bb7"/>
      <circle cx="-50" cy="50" r="46" fill="#f39bb7"/>
      <circle cx="50" cy="50" r="46" fill="#f39bb7"/>
      <circle r="44" fill="#ffe182"/>
    </g>
    <g transform="translate(0 -224)">
      <circle r="88" fill="#e85f73"/>
      <circle cx="-84" cy="0" r="60" fill="#e85f73"/>
      <circle cx="84" cy="0" r="60" fill="#e85f73"/>
      <circle cx="0" cy="-84" r="60" fill="#e85f73"/>
      <circle cx="0" cy="84" r="60" fill="#e85f73"/>
      <circle cx="-58" cy="-58" r="52" fill="#e85f73"/>
      <circle cx="58" cy="-58" r="52" fill="#e85f73"/>
      <circle cx="-58" cy="58" r="52" fill="#e85f73"/>
      <circle cx="58" cy="58" r="52" fill="#e85f73"/>
      <circle r="48" fill="#ffe182"/>
    </g>
    <g transform="translate(180 -132)">
      <circle r="76" fill="#f6a38a"/>
      <circle cx="-72" cy="0" r="54" fill="#f6a38a"/>
      <circle cx="72" cy="0" r="54" fill="#f6a38a"/>
      <circle cx="0" cy="-72" r="54" fill="#f6a38a"/>
      <circle cx="0" cy="72" r="54" fill="#f6a38a"/>
      <circle cx="-50" cy="-50" r="46" fill="#f6a38a"/>
      <circle cx="50" cy="-50" r="46" fill="#f6a38a"/>
      <circle cx="-50" cy="50" r="46" fill="#f6a38a"/>
      <circle cx="50" cy="50" r="46" fill="#f6a38a"/>
      <circle r="44" fill="#fff0a8"/>
    </g>
    <g transform="translate(-268 52)">
      <circle r="44" fill="#ffd36f"/>
      <circle cx="-42" cy="0" r="30" fill="#ffd36f"/>
      <circle cx="42" cy="0" r="30" fill="#ffd36f"/>
      <circle cx="0" cy="-42" r="30" fill="#ffd36f"/>
      <circle cx="0" cy="42" r="30" fill="#ffd36f"/>
      <circle r="26" fill="#fff3b7"/>
    </g>
    <g transform="translate(132 82)">
      <circle r="38" fill="#f6a7c1"/>
      <circle cx="-34" cy="0" r="26" fill="#f6a7c1"/>
      <circle cx="34" cy="0" r="26" fill="#f6a7c1"/>
      <circle cx="0" cy="-34" r="26" fill="#f6a7c1"/>
      <circle cx="0" cy="34" r="26" fill="#f6a7c1"/>
      <circle r="20" fill="#fff0a8"/>
    </g>
  </g>
</svg>
